PathFileType	4	(X/Y/Z)	5_coords_data.trc
DataRate	CameraRate	NumFrames	NumMarkers	Units	OrigDataRate	OrigDataStartFrame	OrigNumFrames
30.0	30.0	9	21	m	30.0	48	67
Frame#	Time	THUMB_TIP	THUMB_IP	THUMB_MCP	THUMB_CMC	INDEX_TIP	INDEX_DIP	INDEX_PIP	INDEX_MCP	MIDDLE_TIP	MIDDLE_DIP	MIDDLE_PIP	MIDDLE_MCP	RING_TIP	RING_DIP	RING_PIP	RING_MCP	PINKY_TIP	PINKY_DIP	PINKY_PIP	PINKY_MCP	WRIST
X1	Y1	Z1	X2	Y2	Z2	X3	Y3	Z3	X4	Y4	Z4	X5	Y5	Z5	X6	Y6	Z6	X7	Y7	Z7	X8	Y8	Z8	X9	Y9	Z9	X10	Y10	Z10	X11	Y11	Z11	X12	Y12	Z12	X13	Y13	Z13	X14	Y14	Z14	X15	Y15	Z15	X16	Y16	Z16	X17	Y17	Z17	X18	Y18	Z18	X19	Y19	Z19	X20	Y20	Z20	X21	Y21	Z21
46	1.5666666666666598	0.5118294575211267	-0.02774632703064228	-0.15958018275251348	0.5008563453615926	-0.02825886178729875	-0.13939781129479062	0.47432857634488457	-0.0286067517098606	-0.12311971424390766	0.47122966279504575	-0.028624132908945832	-0.07861930488955965	0.5738107966339712	0.015068493632485858	-0.1589254460043656	0.557708937899195	0.01816024116816395	-0.15123316139828563	0.5354342685685679	0.021310542076738215	-0.14001155084557707	0.4994395659092208	0.01369214497501603	-0.11856446479488786	0.5946469168576134	0.018972934669107544	-0.13780878455014028	0.5777564683296533	0.02132703145124515	-0.13171198400685016	0.5510630174578627	0.025059624544264025	-0.1206242890544606	0.5111963235958865	0.01988858554097017	-0.1011292897689543	0.5989036371062026	0.020663548822048905	-0.11394652343728306	0.5824929869570794	0.023038358311283758	-0.1068718614967433	0.5595524650899416	0.026370670149778452	-0.09777196406466196	0.522007079687901	0.01920862883176	-0.08458977785860122	0.5978443998798534	0.015664341328104125	-0.08577459518765301	0.581802887542731	0.017289788842391407	-0.08002761316956325	0.5615825615566346	0.017495285035887265	-0.0743788781491852	0.527495219120431	0.008225176785037314	-0.06709865633563228	0.4622830810018608	-0.023011742144276925	-0.051989820119430985
47	1.599999999999993	0.5134212849788645	-0.02702821428889357	-0.15863707439067004	0.5019809016404937	-0.027755942846037218	-0.1387225560631221	0.4751307443053857	-0.028531067497541862	-0.12299715518255372	0.47146575375710453	-0.02861914936883503	-0.07853987134891227	0.573757039764647	0.014340815806321072	-0.15847035651613545	0.5576686564294555	0.01772745492919514	-0.15087466055649157	0.535387325429339	0.021227442973070554	-0.13977050792983964	0.49917436098880263	0.01392815783273993	-0.11858141316700005	0.5942963014114037	0.018426152365172754	-0.13802588429942697	0.5774573123582671	0.02102716146310335	-0.1318872200032766	0.5508313120930156	0.02505980664625085	-0.12074256062303251	0.5109820959658475	0.020099803585398646	-0.10115720219673371	0.5985645762305565	0.020364699580932566	-0.11422502794865674	0.5822075883738875	0.022944892070534295	-0.10709820853370117	0.5593270608197387	0.0264990761013153	-0.09793146354329263	0.5217984572289114	0.01947165514557958	-0.08462958017162542	0.5974803474017707	0.015641500538429498	-0.08653550424830869	0.5815226107490475	0.017457723706112538	-0.08061503346234022	0.5613617251604499	0.01778972774332077	-0.07476349651870262	0.52736395568601	0.008493582488317108	-0.06710733526382334	0.4622830810018608	-0.023011742144276925	-0.051989820119430985
48	1.6333333333333262	0.5151140993345596	-0.026324170468976837	-0.15757253905729018	0.5031349077605966	-0.02727750031150311	-0.13798708191568537	0.4759593615230149	-0.02845467442562344	-0.1228568490095431	0.4717198505577811	-0.028617925641220676	-0.07845088211525891	0.5737213996206975	0.013770780562945784	-0.1580589870931947	0.5576465538708127	0.017400811386248383	-0.15054751517756537	0.5353624746829503	0.02117908406832436	-0.1395405036263333	0.49896549683897407	0.014135745830129332	-0.11858131747115344	0.5940126338203393	0.018041914623337818	-0.13815706043675213	0.5772155885938055	0.02083344248347485	-0.1319872432705913	0.550642607601437	0.025097173922577154	-0.12080212702647292	0.5108037891244965	0.020303749205271115	-0.10115423800905138	0.5982869763223234	0.020153503615158108	-0.11440760367529396	0.5819762147873518	0.02290568873429799	-0.10723930295481099	0.5591432391471607	0.026641097898710386	-0.09802616446736478	0.5216304170860718	0.019703542732638746	-0.08463290708423349	0.5971760074249624	0.015612510627404541	-0.08716129190611738	0.5812921909012845	0.017590713946354808	-0.08109572645258967	0.5611830217729014	0.018011644329871013	-0.0750744181580148	0.5272602805209741	0.008712067929051548	-0.0670963885942617	0.4622830810018608	-0.023011742144276925	-0.051989820119430985
49	1.6666666666666594	0.5167971419868548	-0.02564846499074247	-0.15644643292870708	0.5042469257691923	-0.02682816794056775	-0.13723444776735294	0.4767610168520453	-0.028375112397788227	-0.12271026882861147	0.4719629183015912	-0.028624292468191426	-0.07836158046477543	0.5737254325718709	0.013412493696380867	-0.1577215120079009	0.5576612319738484	0.017219291301381223	-0.15027505304131428	0.5353731928089126	0.021187415087841277	-0.13934312106212499	0.4988458949146096	0.014281138713245212	-0.11856582698473017	0.5938220672392042	0.017831441855114316	-0.13818413649907718	0.577053990449457	0.020759151517869667	-0.13199866021153422	0.5505135516312274	0.025177229693772674	-0.12079619429694988	0.5106741069350573	0.020480139565042577	-0.10112632109900094	0.5980989587954111	0.0200418632021232	-0.11447390000231156	0.581822071011925	0.022928974897206023	-0.10728171604026515	0.5590191669009327	0.02679444216225746	-0.09804777289945515	0.5215189801153357	0.019875826892480353	-0.08460941035805325	0.5969624906453226	0.015576581051423122	-0.08759343292325888	0.5811307400465154	0.017670985960850483	-0.08143152241980828	0.5610595850288924	0.018156486649289483	-0.07528945075463972	0.5271964036175039	0.008860796367165302	-0.06705789331523476	0.462283081001861	-0.023011742144276925	-0.051989820119430985
50	1.6999999999999926	0.5184139570512534	-0.025002346511996065	-0.1553356965187606	0.5053085600585538	-0.026406831455652036	-0.13651347582866166	0.47755191289303955	-0.028287155559411414	-0.12255450310879529	0.4722136071523144	-0.02862443810439852	-0.07826817641190847	0.573826955473701	0.013315166019257973	-0.15742406380858132	0.5577624367176044	0.017208902041895735	-0.15002338431808643	0.5354644263323148	0.021259659892101768	-0.13914221127946086	0.49885143374382146	0.014379567699222884	-0.11850755113851302	0.5937959110400707	0.017784362731695036	-0.13805860941952175	0.5770392836497832	0.02078612250225842	-0.13187760005349647	0.550506721635909	0.025274814210234253	-0.12068455088311064	0.5106495335285778	0.020598262588815253	-0.10104575402309363	0.5980320829353531	0.020007067790668076	-0.11437649869229491	0.5817734615095024	0.022991107750192308	-0.10718256132456425	0.5589801000299881	0.02693281707370132	-0.09795729281502175	0.5214825560191064	0.01999133536606479	-0.08452334853738874	0.5968438769301218	0.01556242734987301	-0.08780373119929524	0.5810442744069944	0.01772956313748375	-0.08158472142367629	0.5609960057188879	0.018238686990715403	-0.07537024360880257	0.5271728757572901	0.008952080842994703	-0.06696558556352888	0.4622830810018609	-0.023011742144276925	-0.051989820119430985
51	1.7333333333333258	0.5198297293921988	-0.024422264716417064	-0.1543112469511887	0.506229884872496	-0.026044821405685314	-0.13586100199807166	0.4782431856713042	-0.028189962884459296	-0.12240875178265936	0.4724333773478022	-0.028630742695611056	-0.07818272052953601	0.5740126643586455	0.013418739838578664	-0.15716108374191284	0.5579353185889302	0.017320700897718977	-0.14979266105493488	0.5356204150181012	0.02136349942602378	-0.1389432052306026	0.49895518573645903	0.014441216780326283	-0.11841568568493682	0.593914386453932	0.017869279294526086	-0.13779350848923078	0.5771516635605167	0.02088408291477506	-0.1316354178492753	0.5506011496727738	0.025373475085117114	-0.12048530035044874	0.5107118335432884	0.02067307865539414	-0.1009175551271117	0.5980883980530733	0.0200370636971704	-0.11412080684606205	0.5818337787131191	0.02307655627958982	-0.10694105511256838	0.5590309195436396	0.027050501464841004	-0.09775316349579893	0.5215249200162487	0.020043435946489163	-0.08437699564873241	0.5968116816696252	0.015564172755254346	-0.0877939445253254	0.5810279672963956	0.01777046035032437	-0.08154841367261584	0.5609895787018362	0.018283859824800075	-0.07530250120820858	0.5271904632149861	0.00898796979533123	-0.06681193751275244	0.462283081001861	-0.023011742144276925	-0.051989820119430985
52	1.7666666666666588	0.5209918364134601	-0.02400444260631074	-0.1534584049764309	0.5069731685512266	-0.025793508692428024	-0.135340011175989	0.4788143949610093	-0.028109476463077265	-0.12228092379668859	0.4726249777630114	-0.02863235988046775	-0.07810731507291613	0.5743336200909178	0.013591551242242761	-0.15686562706337773	0.5582300437325939	0.017453969057474872	-0.1495337407377308	0.5358859452027137	0.02143709458026377	-0.13872236686774025	0.4991783757992527	0.014424367800955795	-0.11830149260612072	0.594192565227789	0.017992436621699137	-0.13738749392044466	0.5774057455558504	0.020973787883093342	-0.13127895645571525	0.5508152255518993	0.025419470228908336	-0.12020693295503615	0.5108705225437213	0.020667400041058825	-0.1007650592922893	0.5982727310599035	0.020029552530233308	-0.11372106033813212	0.5820058234466915	0.02309590325387878	-0.10658066749580003	0.5591768397113221	0.027075670254544715	-0.09746041885715778	0.5216407322693134	0.02002108778370426	-0.08419413308215296	0.5968868331623973	0.0155078831366956	-0.08758348390555931	0.5810986537432168	0.017715614422890824	-0.08134976004291367	0.5610566819205665	0.018229969657096334	-0.0751154338441064	0.5272543018512031	0.00894301629061256	-0.06662808739099896	0.4622830810018609	-0.023011742144276925	-0.051989820119430985
53	1.7999999999999918	0.5220138677457922	-0.0237393607540215	-0.15272463466210462	0.507643412102255	-0.025640389210401016	-0.1348955546127816	0.47934532089131576	-0.028052628555386927	-0.1221590270185014	0.4728000767593401	-0.028631708055002814	-0.07803743994158446	0.5748160376580763	0.013686382219555981	-0.15642166421214795	0.5586748157385879	0.017508642960829213	-0.14915177578304922	0.5362841622059459	0.021441183315724976	-0.13841848207895713	0.4995008607162451	0.014356730356531844	-0.11815927795375122	0.5946313003023775	0.018063570453410338	-0.13678126035315202	0.5778061433530421	0.020995601319271584	-0.13075487763780197	0.5511577469503093	0.025390134223579608	-0.11980222500404356	0.5111190385872848	0.020619533067254947	-0.10055927517227517	0.5985908092381254	0.020006839773200058	-0.11311272364990432	0.5822937679308428	0.02307397056478433	-0.10604171570647494	0.5594193678305649	0.027037943126840602	-0.09702901796497299	0.5218249094996322	0.019951355955108663	-0.08394628816339028	0.5970591702238269	0.015424871008084207	-0.08711891865756027	0.5812484291864384	0.017617652211597168	-0.08093731866709247	0.5611871760406794	0.018119140141851897	-0.07476426018060583	0.527353581154075	0.008854884737742541	-0.066377074725605	0.462283081001861	-0.023011742144276925	-0.051989820119430985
54	1.8333333333333253	0.5231051361558406	-0.023717047291441307	-0.1519313474504528	0.5083900549455723	-0.025658851425706564	-0.13439008804072522	0.47993210135083053	-0.028090355626372965	-0.12201864250992076	0.4729881339057589	-0.028645455319662116	-0.07795773942734313	0.5753723146300772	0.01358868267010227	-0.1558310764111953	0.5591897288681591	0.017408023854570076	-0.14865218018860002	0.5367453158014465	0.021352327216443534	-0.13803612507946017	0.4998329401565553	0.014308292904406494	-0.11799880492777112	0.5951123565082898	0.018006997119384693	-0.13607633034715072	0.578249564085306	0.020920722120746804	-0.13014704385417386	0.5515406193084752	0.025300042122936572	-0.11933670735494192	0.5113824409642431	0.020575332317487205	-0.1003328722070791	0.5989619988485081	0.019961835194732047	-0.11238734365516262	0.5826248605844346	0.02301869672594281	-0.10540497221563305	0.5596969364384318	0.026971554866107472	-0.09652436492339958	0.5220282641069195	0.01988213602812927	-0.08365843707808307	0.5972733609255618	0.015365134629934718	-0.0864900203365161	0.5814272069902849	0.01752311982254373	-0.08038735654371337	0.5613360162225154	0.018017196036877237	-0.07431183506588762	0.5274562075208308	0.008773112026075558	-0.06609058673376056	0.462283081001861	-0.023011742144276925	-0.051989820119430985
